<svg width="308" height="296" viewBox="0 0 308 296" fill="none" xmlns="http://www.w3.org/2000/svg">
<ellipse cx="154" cy="148.09" rx="147.91" ry="154" transform="rotate(90 154 148.09)" fill="#343131"/>
<path d="M203.194 251.028C191.995 250.88 184.025 248.574 179.283 244.111C174.542 239.647 172.226 233.316 172.334 225.117C172.393 220.717 172.896 212.923 173.844 201.735C174.793 190.546 175.86 177.959 177.045 163.974L123.65 163.266L116.561 245.38C116.34 246.977 115.924 248.171 115.314 248.963C114.706 249.555 113.502 249.84 111.702 249.816L95.2033 249.597C84.0043 249.449 76.0342 247.143 71.2929 242.68C66.5516 238.216 64.2353 231.885 64.344 223.686C64.397 219.686 64.7871 212.891 65.5142 203.3C66.244 193.508 67.191 182.42 68.3553 170.034C69.5195 157.649 70.693 144.563 71.8757 130.777C73.0585 116.992 74.2307 104.006 75.3923 91.8206C76.5538 79.635 77.4956 68.9465 78.2174 59.7553C78.9393 50.564 79.3227 44.2686 79.3678 40.8688C79.4075 37.8691 81.0273 36.3904 84.227 36.4329L100.726 36.6515C112.924 36.8132 121.089 39.5216 125.22 44.7768C129.351 50.032 131.349 57.7591 131.213 67.9582C131.192 69.5581 130.817 75.2536 130.087 85.0448C129.36 94.636 128.406 106.224 127.226 119.81L180.921 120.522C181.638 111.73 182.352 103.139 183.063 94.7476C183.974 86.359 184.676 78.6676 185.169 71.6735C185.862 64.6821 186.341 58.6879 186.607 53.691C187.076 48.4968 187.326 44.6997 187.358 42.2999C187.398 39.3002 189.018 37.8215 192.217 37.8639L208.716 38.0826C220.915 38.2442 229.08 40.9527 233.211 46.2079C237.341 51.4631 239.339 59.1902 239.204 69.3893C239.191 70.3892 238.948 73.5863 238.477 78.9805C238.205 84.3774 237.715 91.1715 237.007 99.3628C236.298 107.554 235.476 116.744 234.541 126.933C233.809 136.924 232.972 147.214 232.032 157.802C231.291 168.393 230.454 178.783 229.518 188.971C228.786 198.963 228.065 208.054 227.357 216.245C226.648 224.437 226.057 231.329 225.583 236.924C225.111 242.318 224.768 245.614 224.552 246.811C224.33 248.408 223.915 249.603 223.304 250.395C222.696 250.987 221.492 251.271 219.692 251.247L203.194 251.028Z" fill="white"/>
</svg>
